<svg width="21" height="20" viewBox="0 0 21 20" fill="none" xmlns="http://www.w3.org/2000/svg">
<path d="M17.1667 7.5H9.66667C8.74619 7.5 8 8.24619 8 9.16667V16.6667C8 17.5871 8.74619 18.3333 9.66667 18.3333H17.1667C18.0871 18.3333 18.8333 17.5871 18.8333 16.6667V9.16667C18.8333 8.24619 18.0871 7.5 17.1667 7.5Z" stroke="#3485FF" stroke-width="2" stroke-linecap="round" stroke-linejoin="round"/>
<path d="M4.6665 12.5H3.83317C3.39114 12.5 2.96722 12.3244 2.65466 12.0119C2.3421 11.6993 2.1665 11.2754 2.1665 10.8334V3.33335C2.1665 2.89133 2.3421 2.4674 2.65466 2.15484C2.96722 1.84228 3.39114 1.66669 3.83317 1.66669H11.3332C11.7752 1.66669 12.1991 1.84228 12.5117 2.15484C12.8242 2.4674 12.9998 2.89133 12.9998 3.33335V4.16669" stroke="#3485FF" stroke-width="2" stroke-linecap="round" stroke-linejoin="round"/>
</svg>
